<svg width="264" height="48" viewBox="0 0 264 48" fill="none" xmlns="http://www.w3.org/2000/svg">
<path d="M174.955 47.0726H5.36556H4.79067C2.1079 47.0726 0 45.2521 0 43.0484C0 40.8447 2.1079 39.0243 4.79067 39.0243H5.36556H174.955H175.53C178.213 39.0243 180.321 40.8447 180.321 43.0484C180.321 45.2521 178.213 47.0726 175.53 47.0726H174.955Z" fill="url(#paint0_linear)"/>
<rect x="1.72473" y="39.9824" width="177.255" height="3.83254" rx="1.91627" fill="url(#paint1_linear)"/>
<path d="M183.866 1.17792C184.728 1.17792 185.495 1.46536 186.07 2.13605C186.645 2.71094 187.028 3.47744 187.028 4.33976C187.028 5.20209 186.74 5.96859 186.07 6.54347C185.495 7.11835 184.728 7.50161 183.866 7.50161C183.004 7.50161 182.237 7.21417 181.662 6.54347C181.087 5.96859 180.704 5.20209 180.704 4.33976C180.704 3.47744 180.992 2.71094 181.662 2.13605C182.237 1.56117 182.908 1.17792 183.866 1.17792ZM187.507 4.33976C187.507 3.38163 187.124 2.51931 186.453 1.7528C185.686 1.08211 184.824 0.698853 183.77 0.698853C182.812 0.698853 181.95 1.08211 181.183 1.7528C180.513 2.42349 180.129 3.28582 180.129 4.33976C180.129 5.39371 180.513 6.25603 181.183 6.92673C181.854 7.59742 182.716 7.98068 183.77 7.98068C184.824 7.98068 185.687 7.59742 186.357 6.92673C187.124 6.25603 187.507 5.39371 187.507 4.33976ZM184.824 3.57326C184.824 3.8607 184.728 4.05232 184.441 4.24395C184.249 4.33976 184.058 4.33976 183.77 4.33976H183.1V2.90256H183.674C184.058 2.90256 184.345 2.90256 184.537 2.99838C184.728 3.09419 184.824 3.28582 184.824 3.57326ZM182.333 2.32768V6.35185H183.004V4.81883H183.579C183.962 4.81883 184.249 4.81883 184.345 4.91464C184.633 5.01046 184.728 5.39371 184.728 5.87278V6.16022V6.25603H185.399C185.399 6.25603 185.399 6.16022 185.399 6.06441C185.399 5.96859 185.399 5.87278 185.399 5.77697V5.48953C185.399 5.2979 185.303 5.10627 185.207 4.91464C185.112 4.72302 184.824 4.53139 184.537 4.53139C184.824 4.53139 185.016 4.43558 185.112 4.33976C185.399 4.14814 185.495 3.8607 185.495 3.57326C185.495 3.09419 185.303 2.71094 184.92 2.51931C184.728 2.42349 184.345 2.42349 183.77 2.42349H182.333V2.32768Z" fill="#243C7B"/>
<path d="M155.984 22.9276C154.643 24.6523 153.11 26.3769 149.565 26.3769C143.241 26.3769 142.571 20.7239 142.379 19.1909H158.092C158.092 16.9872 157.997 13.1546 155.218 10.2802C152.727 7.78909 149.565 7.50165 147.84 7.50165C140.654 7.50165 136.822 12.3881 136.822 18.3286C136.822 24.5564 140.654 29.6346 148.032 29.6346C156.176 29.6346 158.284 23.3109 157.23 22.5444C156.655 22.4485 156.272 22.6402 155.984 22.9276ZM147.649 10.9509C151.673 10.9509 152.056 14.3044 152.344 16.1249H142.475C142.954 14.1128 143.816 10.9509 147.649 10.9509Z" fill="#243C7B"/>
<path d="M62.8535 15.7416V18.9035V24.9397C62.8535 27.2392 64.0032 28.9639 66.1111 28.9639H68.219V15.1667V8.5556H49.7271V28.9639H54.9968V11.8133H62.8535V15.7416Z" fill="#243C7B"/>
<path d="M88.5317 9.99281C87.3819 8.84305 85.1782 7.59747 81.6331 7.59747C74.4471 7.59747 72.0518 13.2505 73.3932 14.017C73.7764 14.2086 74.1597 14.1128 74.4471 13.7295C75.2136 12.6756 76.6508 10.6635 80.1001 10.6635C81.6331 10.6635 83.9326 11.1426 84.8908 13.3463C85.3698 14.3044 85.3698 15.4542 85.4656 16.5081C83.8368 16.0291 82.5912 15.6458 80.675 15.6458C75.8843 15.6458 72.0518 18.3286 72.0518 23.0234C72.0518 26.6644 74.7345 29.5388 78.8545 29.5388C82.6871 29.5388 84.6033 27.5267 85.5615 26.6644V28.9639H90.7354V16.6039C90.5438 14.7835 90.5438 12.1007 88.5317 9.99281ZM85.3698 24.8439C84.3159 25.5146 83.0703 26.2811 81.154 26.2811C78.4713 26.2811 77.5131 24.3648 77.5131 22.6402C77.5131 20.0532 79.621 18.8076 81.9205 18.8076C83.2619 18.8076 84.3159 19.1909 85.3698 19.5742V24.8439Z" fill="#243C7B"/>
<path d="M42.9243 23.0234C41.583 24.7481 40.0499 26.4727 36.5048 26.4727C30.1812 26.4727 29.5105 20.8197 29.3188 19.2867H45.0322C44.9364 17.083 44.9364 13.2505 42.1578 10.3761C39.6667 7.88491 36.5048 7.59747 34.6844 7.59747C27.4984 7.59747 23.6658 12.484 23.6658 18.4244C23.6658 24.6523 27.4984 29.7304 34.876 29.7304C43.0202 29.7304 45.1281 23.4067 44.0741 22.6402C43.6908 22.4486 43.2118 22.6402 42.9243 23.0234ZM34.5886 10.9509C38.6127 10.9509 38.996 14.3044 39.2834 16.1249H29.4146C29.9895 14.1128 30.756 10.9509 34.5886 10.9509Z" fill="#243C7B"/>
<path d="M18.2046 0.698853H0V28.9638H9.48554C13.1264 28.9638 15.7134 28.5806 17.8213 27.0476C18.9711 26.1852 21.1748 24.1732 21.1748 20.5322C21.1748 19.2867 20.7915 16.6997 18.492 15.0709C16.959 14.0169 14.8511 13.442 13.7013 13.2504C11.7851 12.8672 8.81485 13.0588 8.23996 13.1546C7.28183 13.2504 5.653 13.7295 5.653 15.1667C6.22788 15.1667 6.89857 15.1667 7.47345 15.1667C9.38972 15.1667 15.426 15.1667 15.426 20.3406C15.426 22.6401 14.0846 24.3648 12.1683 25.0355C10.9227 25.5145 9.67716 25.5145 5.653 25.5145V15.1667V4.24395C5.653 4.24395 12.839 4.24395 15.5218 4.24395C18.2046 4.24395 18.3004 2.80675 18.3004 2.80675V0.698853H18.2046Z" fill="#243C7B"/>
<path d="M113.06 8.5556H107.886V16.3165H99.9334V8.5556H94.7595V28.9639H99.9334V19.5742H107.886C107.886 19.5742 107.886 21.0114 107.886 24.9397C107.886 28.8681 110.952 28.9639 110.952 28.9639H113.06V8.5556Z" fill="#243C7B"/>
<path d="M180.129 8.5556H174.955V16.3165H167.003V8.5556H161.829V28.9639H167.003V19.5742H174.955C174.955 19.5742 174.955 21.0114 174.955 24.9397C174.955 28.8681 178.021 28.9639 178.021 28.9639H180.129V8.5556Z" fill="#243C7B"/>
<path d="M134.139 8.5556H117.18V11.8133H123.025V28.9639H128.294V11.8133H134.139V8.5556Z" fill="#243C7B"/>
<path d="M199.821 8.48715H202.722L208.074 16.3402C208.825 17.4406 209.325 18.2409 209.825 19.0412H209.875C210.275 18.2409 210.825 17.3406 211.526 16.2401L216.478 8.53717H219.429V28.5449H216.227V16.6903C216.227 15.79 216.227 14.6895 216.277 13.7892H216.227C215.877 14.4395 215.177 15.5399 214.827 16.0901L210.525 22.7927H209.025L204.323 15.94C203.923 15.3398 203.372 14.5895 202.972 13.8392H202.922C202.972 14.6895 202.972 15.84 202.972 16.6403V28.4949H199.771V8.48715H199.821Z" fill="#F389AF"/>
<path d="M231.984 27.0443C230.933 28.0447 229.583 28.795 227.782 28.795C225.081 28.795 223.13 26.9943 223.13 24.2433C223.13 22.3425 224.08 21.092 225.531 20.3417C226.531 19.8416 227.732 19.6415 229.182 19.5915L231.783 19.4914V18.8912C231.783 16.9905 230.583 16.2402 228.882 16.2402C227.382 16.2402 226.081 16.7404 225.031 17.2906L223.93 15.1898C225.631 14.2394 227.432 13.7392 229.332 13.7392C232.934 13.7392 234.935 15.3898 234.935 18.8912V24.3933C234.935 26.4441 234.985 27.6946 235.185 28.4449H232.484L231.984 27.0443ZM229.633 21.7423C228.582 21.7923 227.882 21.9424 227.332 22.2425C226.681 22.5926 226.331 23.2429 226.331 24.0432C226.331 25.3937 227.232 26.244 228.682 26.244C230.133 26.244 231.233 25.3937 231.833 24.8935V21.6423L229.633 21.7423Z" fill="#F389AF"/>
<path d="M238.336 27.7946V25.3436C239.737 25.9939 240.987 26.344 242.488 26.344C244.438 26.344 245.589 25.5937 245.589 24.2432C245.589 22.7927 244.338 22.2925 241.937 22.2925C241.687 22.2925 240.887 22.2925 240.337 22.3425V20.0416C240.987 20.0916 241.887 20.0916 242.138 20.0916C244.588 20.0916 245.339 19.1413 245.339 18.1409C245.339 16.9404 244.388 16.2901 242.688 16.2901C241.487 16.2901 240.087 16.6903 239.136 17.1905L238.286 14.9896C239.637 14.2894 241.337 13.8892 242.938 13.8892C246.289 13.8892 248.44 15.5899 248.44 17.9408C248.44 19.4414 247.54 20.6418 246.039 21.142V21.192C247.84 21.6422 248.74 22.8427 248.74 24.4433C248.74 26.6441 246.939 28.945 242.738 28.945C240.937 28.795 239.437 28.3448 238.336 27.7946Z" fill="#F389AF"/>
<path d="M251.791 14.1394H254.942V19.3914C255.492 19.3414 256.043 19.2914 256.643 19.2914C261.545 19.2914 263.095 21.3922 263.095 23.8431C263.095 26.2941 261.645 28.4449 256.693 28.4449H251.791V14.1394ZM256.643 26.044C259.394 26.044 259.944 25.0936 259.944 23.9432C259.944 22.6927 259.294 21.8424 256.593 21.8424C256.043 21.8424 255.492 21.8924 254.992 21.9424V26.094H256.643V26.044Z" fill="#F389AF"/>
<defs>
<linearGradient id="paint0_linear" x1="179.938" y1="47.0726" x2="-0.191626" y2="47.0726" gradientUnits="userSpaceOnUse">
<stop stop-color="#1491D0"/>
<stop offset="1" stop-color="#1A3E71"/>
</linearGradient>
<linearGradient id="paint1_linear" x1="90.3522" y1="39.9824" x2="90.3522" y2="43.8149" gradientUnits="userSpaceOnUse">
<stop stop-color="#75A1CA"/>
<stop offset="1" stop-color="#75A1CA" stop-opacity="0"/>
</linearGradient>
</defs>
</svg>
